<?xml version="1.0" encoding="utf-8"?>
<!-- Generator: Adobe Illustrator 26.5.0, SVG Export Plug-In . SVG Version: 6.00 Build 0)  -->
<svg version="1.1" id="Layer_1" xmlns="http://www.w3.org/2000/svg" xmlns:xlink="http://www.w3.org/1999/xlink" x="0px" y="0px"
	 viewBox="0 0 512 512" style="enable-background:new 0 0 512 512;" xml:space="preserve">
<style type="text/css">
	.st0{fill:#E5E5E5;}
	.st1{fill:url(#SVGID_1_);}
	.st2{fill:url(#SVGID_00000057842318562364746070000006170685718693508754_);}
	.st3{fill:#333333;}
	.st4{fill:#FFFFFF;}
	.st5{fill:url(#SVGID_00000033356812283432603260000010061498861389340845_);}
	.st6{fill:url(#SVGID_00000024707844267342658490000013594093347114468780_);}
	.st7{fill:url(#SVGID_00000098196838806025369890000016165511941655632302_);}
	.st8{fill:url(#SVGID_00000067947898122740755500000007882795955204306334_);}
	.st9{fill:url(#SVGID_00000045579624065759543810000002488694856963690671_);}
	.st10{fill:url(#SVGID_00000080889125235786267540000004428756138336982669_);}
	.st11{fill:url(#SVGID_00000132069387655080236380000000018320881858752670_);}
	.st12{fill:url(#SVGID_00000167376363577424566170000000824776741627192744_);}
	.st13{fill:url(#SVGID_00000029036236978441965890000015046652017117925809_);}
	.st14{fill:url(#SVGID_00000052812782501930886350000010119280976762677934_);}
	.st15{fill:url(#SVGID_00000055704201952655088490000014025239962204826801_);}
	.st16{fill:url(#SVGID_00000056420594307899256280000002538813617235491743_);}
	.st17{fill:url(#SVGID_00000133527737936102626530000010198608653524158639_);}
</style>
<g id="XMLID_1_">
	<path id="XMLID_2_" class="st0" d="M505.64,166.65c3.37,2.81,5.05,5.33,4.35,7.15c0,0.14-0.14,0.14-0.14,0.14v0.14
		c-0.14,0.28-0.56,0.56-0.84,0.84c0,0-6.87,6.03-8.14,9.26L439.3,344.51c-3.65,8.98-12.2,14.59-21.32,14.59
		c-2.67,0-5.47-0.42-8.28-1.54c-1.82-0.7-3.51-1.54-5.05-2.67c1.96,1.68,4.21,3.09,6.87,4.07c2.67,0.98,5.47,1.54,8.28,1.54
		c9.12,0,17.81-5.47,21.32-14.59l61.72-160.18c1.26-3.09,8.14-9.26,8.14-9.26c0.28-0.28,0.56-0.56,0.84-0.84v-0.14
		c0-0.14,0.14-0.14,0.14-0.14C512.65,173.1,510.27,170.02,505.64,166.65"/>
	
		<linearGradient id="SVGID_1_" gradientUnits="userSpaceOnUse" x1="-336.3543" y1="572.7218" x2="-335.3526" y2="572.7218" gradientTransform="matrix(51.4986 19.8035 10.9826 -92.8601 11454.4473 60090.957)">
		<stop  offset="0" style="stop-color:#919191"/>
		<stop  offset="1" style="stop-color:#FFFFFF"/>
	</linearGradient>
	<path class="st1" d="M465.38,151.5c-3.79,0-6.31,0.84-7.01,2.52c0,0.14,0,0.14-0.14,0.28c-0.14,0.42-0.14,0.84,0,1.26
		c0,0,0.28,1.54,0.42,3.51c2.81,10.1,9.54,16.27,9.54,16.27l-27.35,71.39l0,0c7.01-4.07,12.76-3.23,20.34-6.59
		c7.85-3.37,16.41-13.33,16.41-13.33L433.12,342.4c-2.52,6.45-8.7,10.38-15.43,10.38c-1.96,0-3.93-0.42-5.89-1.12
		c-0.98-0.42-1.82-0.84-2.67-1.26c1.54,3.09,3.79,5.75,6.59,7.85c-2.1-0.14-4.21-0.56-6.17-1.4c-8.98-3.51-14.59-11.92-14.59-21.04
		c-0.14,7.43,3.51,14.59,9.68,18.94c1.54,1.12,3.23,1.96,5.05,2.67c2.67,0.98,5.47,1.54,8.28,1.54c9.12,0,17.81-5.47,21.32-14.59
		l61.58-160.32c1.26-3.09,8.14-9.26,8.14-9.26c0.28-0.28,0.56-0.56,0.84-0.84v-0.14c0-0.14,0.14-0.14,0.14-0.14
		c0.7-1.82-0.98-4.49-4.35-7.15c-4.07-3.37-10.8-7.15-18.66-10.24C478.71,153.19,470.86,151.5,465.38,151.5"/>
	
		<linearGradient id="SVGID_00000179640005978838142820000017678378461339868564_" gradientUnits="userSpaceOnUse" x1="-332.0364" y1="573.2963" x2="-331.0347" y2="573.2963" gradientTransform="matrix(31.1521 11.9794 7.2896 -51.194 6585.8257 33607.1094)">
		<stop  offset="0" style="stop-color:#990000"/>
		<stop  offset="1" style="stop-color:#E80000"/>
	</linearGradient>
	<path style="fill:url(#SVGID_00000179640005978838142820000017678378461339868564_);" d="M434.53,318c-0.98,0-1.82-0.84-1.82-1.82
		c0-0.98,0.84-1.82,1.82-1.82s1.82,0.84,1.82,1.82C436.35,317.16,435.51,318,434.53,318 M432,291.91c-2.81,0-5.05-2.24-5.05-5.05
		s2.24-5.05,5.05-5.05c2.81,0,5.05,2.24,5.05,5.05S434.81,291.91,432,291.91 M449.82,274.23c-1.54,0-2.67-1.26-2.67-2.67
		c0-1.54,1.26-2.67,2.67-2.67c1.54,0,2.67,1.26,2.67,2.67C452.48,272.97,451.36,274.23,449.82,274.23 M477.73,226.83
		c0,0-8.56,9.96-16.41,13.33c-7.71,3.37-13.47,2.52-20.34,6.59l0,0l-4.21,10.94c0.28-0.56,0.84-0.84,1.54-0.84
		c0.98,0,1.82,0.84,1.82,1.82s-0.84,1.82-1.82,1.82c-0.98,0-1.82-0.84-1.82-1.82c0-0.14,0-0.28,0-0.42l-7.85,20.62
		c0.14,0.56-0.14,1.54-0.84,2.24l0,0l-4.77,12.62c0.28-0.14,0.7-0.14,0.98-0.14c1.54,0,2.67,1.26,2.67,2.67
		c0,1.54-1.26,2.67-2.67,2.67c-1.12,0-1.96-0.56-2.38-1.54l-13.33,34.65c-2.24,6.31-1.68,12.9,1.12,18.37
		c0.84,0.56,1.68,0.98,2.67,1.26c1.96,0.7,3.93,1.12,5.89,1.12c6.59,0,12.76-4.07,15.43-10.38L477.73,226.83"/>
	<path id="XMLID_3_" class="st3" d="M499.33,170.58c0.84-2.24-5.47-6.87-14.31-10.24c-8.7-3.37-16.55-4.21-17.39-1.96
		s5.47,6.87,14.31,10.24C490.63,171.98,498.35,172.82,499.33,170.58z"/>
	<path id="XMLID_8_" class="st4" d="M407.18,300.18c-0.14,0.14-0.28,0.14-0.28,0.28l-10.38,27.21c-0.98,2.81-1.54,5.61-1.4,8.28
		c0-2.67,0.56-5.19,1.4-7.85L407.18,300.18 M457.81,155.57c0,0,1.26,8.42-0.14,12.2l-48.39,126.38c0.14-0.14,0.28-0.14,0.42-0.28
		l48.53-126.1c0.84-2.24,0.84-6.03,0.56-8.84C458.37,157.96,458.09,156.83,457.81,155.57"/>
	
		<linearGradient id="SVGID_00000003821174848440115280000004621925610422637448_" gradientUnits="userSpaceOnUse" x1="-336.3543" y1="572.6534" x2="-335.3526" y2="572.6534" gradientTransform="matrix(51.4986 19.8035 10.9826 -92.8601 11454.4473 60090.957)">
		<stop  offset="0" style="stop-color:#B2B2B2"/>
		<stop  offset="1" style="stop-color:#FFFFFF"/>
	</linearGradient>
	<path style="fill:url(#SVGID_00000003821174848440115280000004621925610422637448_);" d="M416.71,292.19
		c-2.95,2.67-6.17,5.47-9.54,8l-10.66,27.91c-0.98,2.52-1.4,5.19-1.4,7.85c0.14,9.12,5.61,17.53,14.59,21.04
		c1.96,0.84,4.07,1.26,6.17,1.4c-2.81-2.1-5.05-4.91-6.59-7.85c-6.73-4.07-10.1-12.62-7.29-20.06L416.71,292.19 M458.65,159.08
		c0.28,2.81,0.28,6.59-0.56,8.84l-48.53,126.1c3.37-2.52,6.59-5.19,9.4-7.71l11.5-29.74c0,0,3.51-5.75,10.52-9.82l27.35-71.39
		C468.19,175.35,461.6,169.18,458.65,159.08"/>
	
		<linearGradient id="SVGID_00000122695164663449232780000016092155595086002836_" gradientUnits="userSpaceOnUse" x1="-332.0364" y1="572.9813" x2="-331.0347" y2="572.9813" gradientTransform="matrix(31.1521 11.9794 7.2896 -51.194 6585.8257 33607.1094)">
		<stop  offset="0" style="stop-color:#B84D4D"/>
		<stop  offset="1" style="stop-color:#EF4D4D"/>
	</linearGradient>
	<path style="fill:url(#SVGID_00000122695164663449232780000016092155595086002836_);" d="M427.65,281.25
		c-2.52,2.67-6.45,6.73-10.94,10.94l-14.73,38.29c-2.81,7.43,0.56,15.85,7.29,20.06c-2.81-5.47-3.37-12.2-1.12-18.37l13.33-34.65
		c-0.14-0.28-0.28-0.7-0.28-1.12c0-1.12,0.7-2.1,1.68-2.52L427.65,281.25 M440.84,246.74c-7.01,4.07-10.52,9.82-10.52,9.82
		l-11.5,29.74c3.09-2.81,5.61-5.19,7.15-6.73c0.84-0.84,1.4-1.12,1.82-1.12c0.28,0,0.56,0.14,0.56,0.56l7.85-20.62
		c0-0.14,0.14-0.42,0.14-0.56L440.84,246.74"/>
	
		<linearGradient id="SVGID_00000064351930260301885760000011112336461032136580_" gradientUnits="userSpaceOnUse" x1="-332.0364" y1="573.8155" x2="-331.0347" y2="573.8155" gradientTransform="matrix(31.1521 11.9794 7.2896 -51.194 6585.8257 33607.1094)">
		<stop  offset="0" style="stop-color:#CC8080"/>
		<stop  offset="1" style="stop-color:#F48080"/>
	</linearGradient>
	<path style="fill:url(#SVGID_00000064351930260301885760000011112336461032136580_);" d="M438.17,256.84
		c-0.7,0-1.26,0.42-1.54,0.84l-0.14,0.56c0,0.14,0,0.28,0,0.42c0,0.98,0.84,1.82,1.82,1.82s1.82-0.84,1.82-1.82
		C440,257.68,439.16,256.84,438.17,256.84"/>
	
		<linearGradient id="SVGID_00000041256995531242992040000002469930189649613214_" gradientUnits="userSpaceOnUse" x1="-332.0363" y1="573.8139" x2="-331.0349" y2="573.8139" gradientTransform="matrix(31.1521 11.9794 7.2896 -51.194 6585.8257 33607.1094)">
		<stop  offset="0" style="stop-color:#DCA6A6"/>
		<stop  offset="1" style="stop-color:#F7A6A6"/>
	</linearGradient>
	<path style="fill:url(#SVGID_00000041256995531242992040000002469930189649613214_);" d="M436.63,257.82
		c-0.14,0.14-0.14,0.28-0.14,0.56L436.63,257.82"/>
	
		<linearGradient id="SVGID_00000148657467616271016750000011887911213826524336_" gradientUnits="userSpaceOnUse" x1="-332.0364" y1="573.6616" x2="-331.0347" y2="573.6616" gradientTransform="matrix(31.1521 11.9794 7.2896 -51.194 6585.8257 33607.1094)">
		<stop  offset="0" style="stop-color:#CC8080"/>
		<stop  offset="1" style="stop-color:#F48080"/>
	</linearGradient>
	<path style="fill:url(#SVGID_00000148657467616271016750000011887911213826524336_);" d="M449.82,268.76
		c-1.54,0-2.67,1.26-2.67,2.67c0,1.54,1.26,2.67,2.67,2.67c1.54,0,2.67-1.26,2.67-2.67S451.36,268.76,449.82,268.76"/>
	
		<linearGradient id="SVGID_00000165199675757524722520000001954707075105679490_" gradientUnits="userSpaceOnUse" x1="-332.0364" y1="573.2489" x2="-331.0347" y2="573.2489" gradientTransform="matrix(31.1521 11.9794 7.2896 -51.194 6585.8257 33607.1094)">
		<stop  offset="0" style="stop-color:#CC8080"/>
		<stop  offset="1" style="stop-color:#F48080"/>
	</linearGradient>
	<path style="fill:url(#SVGID_00000165199675757524722520000001954707075105679490_);" d="M432,281.81c-2.81,0-5.05,2.24-5.05,5.05
		s2.24,5.05,5.05,5.05c2.81,0,5.05-2.24,5.05-5.05S434.81,281.81,432,281.81"/>
	
		<linearGradient id="SVGID_00000023264951313984609080000006368296813880189114_" gradientUnits="userSpaceOnUse" x1="-332.0364" y1="573.0174" x2="-331.0347" y2="573.0174" gradientTransform="matrix(31.1521 11.9794 7.2896 -51.194 6585.8257 33607.1094)">
		<stop  offset="0" style="stop-color:#CC8080"/>
		<stop  offset="1" style="stop-color:#F48080"/>
	</linearGradient>
	<path style="fill:url(#SVGID_00000023264951313984609080000006368296813880189114_);" d="M423.87,293.59
		c-0.42,0-0.7,0.14-0.98,0.14l-1.4,3.65c0.42,0.84,1.4,1.54,2.38,1.54c1.54,0,2.67-1.26,2.67-2.67
		C426.53,294.71,425.41,293.59,423.87,293.59"/>
	
		<linearGradient id="SVGID_00000110470926393066312130000010218832911458650256_" gradientUnits="userSpaceOnUse" x1="-332.0364" y1="573.0179" x2="-331.0347" y2="573.0179" gradientTransform="matrix(31.1521 11.9794 7.2896 -51.194 6585.8257 33607.1094)">
		<stop  offset="0" style="stop-color:#DCA6A6"/>
		<stop  offset="1" style="stop-color:#F7A6A6"/>
	</linearGradient>
	<path style="fill:url(#SVGID_00000110470926393066312130000010218832911458650256_);" d="M422.88,293.73
		c-0.98,0.42-1.68,1.4-1.68,2.52c0,0.42,0.14,0.84,0.28,1.12L422.88,293.73"/>
	
		<linearGradient id="SVGID_00000160179912836047970540000012050733753907947144_" gradientUnits="userSpaceOnUse" x1="-332.0364" y1="572.724" x2="-331.0347" y2="572.724" gradientTransform="matrix(31.1521 11.9794 7.2896 -51.194 6585.8257 33607.1094)">
		<stop  offset="0" style="stop-color:#CC8080"/>
		<stop  offset="1" style="stop-color:#F48080"/>
	</linearGradient>
	<path style="fill:url(#SVGID_00000160179912836047970540000012050733753907947144_);" d="M434.53,314.35
		c-0.98,0-1.82,0.84-1.82,1.82s0.84,1.82,1.82,1.82s1.82-0.84,1.82-1.82S435.51,314.35,434.53,314.35"/>
	<path id="XMLID_11_" class="st0" d="M112.9,255.86c-0.14,0-0.28,0-0.28,0c-0.7,0-1.96,1.26-0.84,1.82
		c1.54,0.56,2.24,1.82,2.24,3.65c-1.26,7.43-10.66,15.99-14.17,18.8c-0.7,0.7,0.14,2.38,0.84,2.38c0.14,0,0.28,0,0.42-0.14
		c1.96-1.54,6.17-4.91,9.54-9.26c-5.61,12.48-16.55,28.61-20.76,34.36c-16.41,22.58-41.24,43.48-58.35,43.48
		c-13.75,0-25.25-9.26-27.77-22.86c-0.14-0.7-0.7-1.26-1.12-1.26s-0.84,0.42-0.7,1.4c3.09,18.66,17.53,25.95,34.93,25.95
		c19.08,0,41.52-13.75,53.86-27.91c20.06-22.86,32.96-49.09,29.46-63.96C118.65,256.98,115.15,255.86,112.9,255.86 M329.19,239.45
		c-0.84,0-1.68,0.14-2.67,0.42c-3.79,1.12-7.43,8.42-10.24,14.59c-8.42,12.48-22.44,29.46-32.26,38.43c-4.07,3.51-8,5.89-10.1,5.89
		c-2.24,0-2.1-2.95,3.09-10.38c4.07-5.61,9.12-11.5,12.06-17.53c4.77-10.38-0.7-16.83-8.56-16.83c-3.51,0-7.43,1.26-11.22,4.07
		c-6.87,5.33-16.13,16.13-23.56,22.16c-1.54,1.26-1.54,2.95-0.7,2.95c0.28,0,0.7-0.14,1.12-0.56c5.75-4.63,15.99-15.43,24.83-21.74
		c2.67-1.96,4.77-2.81,6.03-2.81c2.38,0,2.67,2.52-0.14,5.47c-5.75,6.73-15.99,18.37-18.66,25.67c-3.65,11.08,0.7,15.99,8,15.99
		c9.96,0,24.97-15.57,34.93-27.91c3.37-4.21,6.87-9.12,9.96-13.75c-8.7,16.83-17.81,33.94-29.03,49.37
		c-15.99,21.74-36.05,38.15-54.98,38.15c-13.75,0-25.53-9.26-28.05-22.86c-0.14-0.7-0.56-1.26-1.12-1.26c-0.42,0-0.84,0.42-0.7,1.4
		c3.09,18.66,17.53,25.95,34.93,25.95c19.08,0,37.45-11.08,50.35-24.69c25.95-27.35,29.03-58.21,37.03-75.46
		c3.23-6.73,6.31-8,8.84-8c0.42,0,0.84,0,1.26,0.14c0.42,0,0.7,0,0.98,0c3.09,0,4.21-1.82,3.65-3.65
		C334.38,241.27,332.27,239.45,329.19,239.45 M129.59,234.12c-2.52,0-5.47,1.4-7.71,3.93c-3.51,3.79-4.07,8.56-1.26,10.66
		c0.84,0.7,2.1,1.12,3.23,1.12c2.52,0,5.47-1.4,7.57-3.79c3.51-3.79,4.07-8.7,1.26-10.8C131.98,234.54,130.85,234.12,129.59,234.12
		 M381.09,204.66c-6.73,0.14-18.94,4.91-24.55,9.26c-0.98,0.98-0.84,1.54-0.14,1.54c0.28,0,0.56-0.14,1.12-0.28
		c1.12-0.42,2.38-1.12,3.65-1.54c1.26-0.7,2.1-0.98,2.67-0.98c2.81,0,0.84,5.19-0.28,7.43c-7.57,13.33-21.04,31.84-28.19,41.24
		c-5.75,7.71-12.9,15.57-18.37,19.92c-1.54,1.26-1.4,2.52-0.28,2.52c0.42,0,0.98-0.14,1.54-0.56c1.96-1.26,4.91-4.21,8.14-7.57
		c-6.03,11.92-10.94,28.75,4.91,30.86c0.84,0.14,1.68,0.14,2.52,0.14c12.9,0,27.63-12.62,37.45-22.16c1.12-1.12,2.38-2.38,3.65-3.65
		c0.28-0.28,0.56-0.56,0.84-0.84c-6.03,11.92-10.94,28.75,4.91,30.86c0.84,0.14,1.68,0.14,2.52,0.14c7.71,0,16.13-4.63,23.7-10.24
		l2.38-6.31c-5.61,4.21-11.5,8-16.69,9.96c-3.23,1.26-5.75,1.82-7.71,1.82c-17.39,0,17.11-46.15,20.34-50.21
		c7.85-9.96,25.39-27.07,30.72-35.49c3.79-6.45,3.65-11.5-5.33-11.5c-6.73,0.14-18.94,4.91-24.55,9.26
		c-0.98,0.98-0.84,1.54-0.14,1.54c0.28,0,0.56-0.14,1.12-0.28c1.12-0.42,2.38-1.12,3.65-1.54c1.26-0.7,2.1-0.98,2.67-0.98
		c2.81,0,0.84,5.19-0.28,7.43c-7.57,13.33-21.04,31.84-28.19,41.24c-3.37,4.63-7.15,9.12-10.94,12.9
		c-6.73,6.45-20.34,17.95-30.58,21.74c-3.23,1.26-5.75,1.82-7.71,1.82c-17.39,0,17.11-46.15,20.34-50.21
		c7.85-9.82,25.25-26.79,30.58-35.35C390.2,209.71,390.06,204.66,381.09,204.66 M208.7,283.49c-1.68,0-2.95-0.28-3.93-0.84
		l-0.84-0.56c-0.56-0.84-1.12-1.82-1.54-2.67c3.51-4.35,7.43-8.14,11.5-11.64c6.87-6.17,12.34-8.42,16.13-8.42
		c7.85,0,8.56,9.82-0.28,16.55C224.27,280.13,214.73,283.49,208.7,283.49 M271.4,190.64c-7.15,0-17.11,4.07-28.05,14.03
		c-21.46,19.78-35.49,40.4-47.69,67.19c-4.21,5.05-7.29,9.26-11.08,12.48c-0.56,0.42-0.84,0.84-1.12,1.26
		c-10.52,8.98-26.93,21.18-37.31,21.18c-0.14,0-0.28,0-0.42,0c-7.01,0-9.96-5.47-8.7-12.34c1.96-11.08,13.47-24.13,23.28-28.61
		c2.38-1.12,4.63-1.54,6.59-1.54c8.14,0,10.52,8.84-3.09,15.99c-6.45,3.23-14.03,5.05-17.11,5.05c-3.65,0-3.37,1.54-0.14,1.54
		c0.28,0,0.42,0,0.7,0c5.19,0,12.9-2.1,18.09-4.49c17.11-8.14,18.23-23.42-0.42-23.99c-0.42,0-0.84,0-1.26,0
		c-19.92,0-43.2,16.83-43.06,38.15c0.14,9.82,8,15.01,18.66,15.01c17.95-0.14,33.8-13.75,46.85-25.67c1.96-1.54,3.65-3.23,5.47-5.05
		c-4.63,11.5-6.87,22.3-5.75,30.3c0.7,5.75,4.07,8.42,6.59,10.66c0.14,0.14,0.28,0.14,0.42,0.14c0.42,0,0.98-0.42,0.42-1.26
		c-3.79-4.49-2.67-17.95,2.52-31c3.79,7.57,16.83,16.69,31.7,16.69c2.52,0,5.05-0.28,7.71-0.84c5.33-1.26,9.54-4.21,9.54-8.84
		c0-0.28-0.28-0.42-0.42-0.42c-0.28,0-0.42,0.14-0.42,0.42c0,2.67-3.09,5.05-6.59,5.47c-0.56,0.14-0.98,0.14-1.54,0.14
		c-8.56,0-23.28-8.98-30.44-18.23c1.82,0.7,4.07,0.98,6.59,0.98c8.7,0,20.06-3.65,26.09-8.14c7.29-5.33,10.24-11.08,10.66-15.71
		c0.7-5.61-3.65-9.54-10.52-9.54c-2.67,0-5.61,0.56-8.98,1.82c-7.57,3.09-16.69,9.82-26.23,22.3c9.96-16.41,29.74-43.34,48.95-60.45
		c10.52-9.26,19.08-13.61,23.28-13.61c5.33,0,4.35,6.73-7.29,18.94c-8.7,9.12-25.11,20.9-36.33,25.95c-2.81,1.26-2.24,2.67-0.7,2.67
		c0.42,0,0.84-0.14,1.4-0.28c12.06-5.33,28.05-16.13,37.73-25.25C289.07,205.79,285.29,190.64,271.4,190.64"/>
	
		<linearGradient id="SVGID_00000057129948594031764750000014206341282159937727_" gradientUnits="userSpaceOnUse" x1="-332.0364" y1="573.3492" x2="-331.0347" y2="573.3492" gradientTransform="matrix(31.1521 11.9794 7.2896 -51.194 6585.8257 33607.1094)">
		<stop  offset="0" style="stop-color:#890000"/>
		<stop  offset="1" style="stop-color:#D00000"/>
	</linearGradient>
	<path style="fill:url(#SVGID_00000057129948594031764750000014206341282159937727_);" d="M428.64,278.86l-0.84,2.24l0,0
		C428.5,280.41,428.78,279.42,428.64,278.86"/>
	<path id="XMLID_22_" class="st0" d="M409.7,294.01c-0.14,0.14-0.28,0.14-0.42,0.28l-2.38,6.31c0.14-0.14,0.28-0.14,0.28-0.28
		L409.7,294.01"/>
	
		<linearGradient id="SVGID_00000173160437586398449740000006935034891028441738_" gradientUnits="userSpaceOnUse" x1="-336.3543" y1="572.2065" x2="-335.3526" y2="572.2065" gradientTransform="matrix(51.4986 19.8035 10.9826 -92.8601 11454.4473 60090.957)">
		<stop  offset="0" style="stop-color:#A0A0A0"/>
		<stop  offset="1" style="stop-color:#E5E5E5"/>
	</linearGradient>
	<path style="fill:url(#SVGID_00000173160437586398449740000006935034891028441738_);" d="M418.96,286.3
		c-2.81,2.38-5.89,5.05-9.4,7.71l-2.38,6.31c3.37-2.52,6.59-5.33,9.54-8L418.96,286.3"/>
	
		<linearGradient id="SVGID_00000094613573503575781170000005084838319023942330_" gradientUnits="userSpaceOnUse" x1="-332.0364" y1="573.2093" x2="-331.0347" y2="573.2093" gradientTransform="matrix(31.1521 11.9794 7.2896 -51.194 6585.8257 33607.1094)">
		<stop  offset="0" style="stop-color:#A54545"/>
		<stop  offset="1" style="stop-color:#D74545"/>
	</linearGradient>
	<path style="fill:url(#SVGID_00000094613573503575781170000005084838319023942330_);" d="M427.93,278.44
		c-0.42,0-0.98,0.28-1.82,1.12c-1.4,1.54-3.93,3.93-7.15,6.73l-2.24,5.89c4.63-4.21,8.42-8.28,10.94-10.94l0.84-2.24
		C428.5,278.58,428.36,278.44,427.93,278.44"/>
	
		<linearGradient id="SVGID_00000129207400206791192520000015860446913119047591_" gradientUnits="userSpaceOnUse" x1="-343.3982" y1="571.1939" x2="-342.3972" y2="571.1939" gradientTransform="matrix(0 -163.3988 -435.0564 0 248719.8281 -55758.2578)">
		<stop  offset="0" style="stop-color:#1A1A1A"/>
		<stop  offset="0.4026" style="stop-color:#4A4A4C"/>
		<stop  offset="1" style="stop-color:#333333"/>
	</linearGradient>
	<path style="fill:url(#SVGID_00000129207400206791192520000015860446913119047591_);" d="M118.79,247.16
		c2.67,2.24,7.57,0.84,10.94-2.67c3.51-3.79,4.07-8.7,1.26-10.8c-2.67-2.24-7.57-0.84-10.94,2.95
		C116.69,240.15,116.13,244.92,118.79,247.16z M110.8,254.18c-0.7,0-1.96,1.26-0.84,1.82c1.54,0.56,2.24,1.82,2.24,3.65
		c-1.26,7.43-10.66,15.99-14.17,18.8c-0.84,0.84,0.42,2.95,1.26,2.24c1.96-1.54,6.17-4.91,9.54-9.26
		c-5.61,12.48-16.55,28.61-20.76,34.36c-16.41,22.58-41.24,43.48-58.35,43.48c-13.75,0-25.25-9.26-27.77-22.86
		c-0.14-1.54-2.24-1.82-1.82,0.14c3.09,18.66,17.53,25.95,34.93,25.95c19.08,0,41.52-13.75,53.86-27.91
		c20.06-22.86,32.96-49.09,29.46-63.96C116.83,254.88,113.04,254.04,110.8,254.18z M233.67,303.97c5.33-1.26,9.54-4.21,9.54-8.84
		c0-0.56-0.84-0.56-0.84,0c0,2.67-3.09,5.05-6.59,5.47c-8.14,1.26-24.41-8.28-31.98-18.09c8.14,3.09,24.97-1.4,32.82-7.01
		c7.29-5.33,10.24-11.08,10.66-15.71c0.84-7.71-7.57-12.34-19.5-7.71c-7.57,3.09-16.69,9.82-26.23,22.3
		c9.96-16.41,29.74-43.34,48.95-60.45c23.56-20.9,37.03-16.83,15.99,5.33c-8.7,9.12-25.11,20.9-36.33,25.95
		c-3.51,1.54-1.82,3.51,0.7,2.38c12.06-5.33,28.05-16.13,37.73-25.25c28.61-27.35,4.77-48.11-26.93-19.08
		c-21.46,19.64-35.49,40.4-47.69,67.19c-4.21,5.05-7.29,9.26-11.08,12.48c-0.56,0.42-0.84,0.84-1.12,1.26
		c-10.52,8.98-26.93,21.18-37.31,21.18c-7.29,0.14-10.38-5.33-9.12-12.34c1.96-11.08,13.47-24.13,23.28-28.61
		c12.76-5.75,20.2,5.47,3.51,14.45c-6.45,3.23-14.03,5.05-17.11,5.05c-3.65,0-3.37,1.54-0.14,1.54c5.05,0.14,13.33-1.96,18.66-4.49
		c17.11-8.14,18.23-23.42-0.42-23.99c-20.2-0.7-44.46,16.41-44.18,38.15c0.14,9.82,8,15.01,18.66,15.01
		c17.95-0.14,33.8-13.75,46.85-25.67c1.96-1.54,3.65-3.23,5.47-5.05c-4.63,11.5-6.87,22.3-5.75,30.3c0.7,5.75,4.07,8.42,6.59,10.66
		c0.56,0.42,1.54,0,0.84-1.12c-3.79-4.49-2.67-17.95,2.52-31C198.74,296.82,215.85,307.9,233.67,303.97z M212.07,266.1
		c20.9-18.66,29.03-1.96,15.85,8.14c-6.87,5.33-20.62,9.26-24.97,6.73l-0.84-0.56c-0.56-0.84-1.12-1.82-1.54-2.67
		C204.07,273.53,208.14,269.61,212.07,266.1z M328.35,244.92c8.42,0.84,4.91-9.26-3.65-6.73c-3.79,1.12-7.43,8.42-10.24,14.59
		c-8.42,12.48-22.44,29.46-32.26,38.43c-8.7,7.43-16.69,9.54-6.87-4.49c4.07-5.61,9.12-11.5,12.06-17.53
		c6.87-15.01-7.85-21.74-19.64-12.62c-6.87,5.33-16.13,16.13-23.56,22.16c-1.96,1.54-1.54,3.93,0.56,2.38
		c5.75-4.63,15.99-15.43,24.83-21.74c7.29-5.61,10.24-1.96,6.03,2.67c-5.75,6.73-15.99,18.37-18.66,25.67
		c-3.65,11.08,0.7,15.99,8,15.99c9.96,0,24.97-15.57,34.93-27.91c3.37-4.21,6.87-9.12,9.96-13.75
		c-8.7,16.83-17.81,33.94-29.03,49.37c-15.99,21.74-36.05,38.15-54.98,38.15c-13.75,0-25.53-9.26-28.05-22.86
		c-0.14-1.54-1.96-1.82-1.82,0.14c3.09,18.66,17.53,25.95,34.93,25.95c19.08,0,37.45-11.08,50.35-24.69
		c25.95-27.35,29.03-58.21,37.03-75.46C322.18,244.92,325.54,244.5,328.35,244.92z M434.11,218.55c3.79-6.45,3.65-11.5-5.33-11.5
		c-6.73,0.14-18.94,4.91-24.55,9.26c-1.26,1.26-0.7,1.96,0.84,1.26c1.12-0.42,2.38-1.12,3.65-1.54c6.45-3.51,3.79,3.79,2.38,6.45
		c-7.57,13.33-21.04,31.84-28.19,41.24c-3.37,4.63-7.15,9.12-10.94,12.9c-6.73,6.45-20.34,17.95-30.58,21.74
		c-33.1,12.34,9.12-43.9,12.62-48.39c7.85-9.82,25.25-26.79,30.58-35.35c3.79-6.45,3.65-11.5-5.33-11.5
		c-6.73,0.14-18.94,4.91-24.55,9.26c-1.26,1.26-0.7,1.96,0.84,1.26c1.12-0.42,2.38-1.12,3.65-1.54c6.45-3.51,3.79,3.79,2.38,6.45
		c-7.57,13.33-21.04,31.84-28.19,41.24c-5.75,7.71-12.9,15.57-18.37,19.92c-2.24,1.82-0.84,3.51,1.26,1.96
		c1.96-1.26,4.91-4.21,8.14-7.57c-6.03,11.92-10.94,28.75,4.91,30.86c13.47,1.82,29.46-11.92,39.83-22.02
		c1.12-1.12,2.38-2.38,3.65-3.65c0.28-0.28,0.56-0.56,0.84-0.84c-6.03,11.92-10.94,28.75,4.91,30.86
		c17.25,2.38,38.85-20.9,47.13-29.46c1.54-1.54,1.12-4.35-1.54-1.54c-4.91,5.05-21.46,20.2-33.52,24.69
		c-33.1,12.34,9.12-43.9,12.62-48.39C411.38,243.94,428.78,226.97,434.11,218.55z"/>
</g>
</svg>
